<svg width="217" height="217" viewBox="0 0 217 217" fill="none" xmlns="http://www.w3.org/2000/svg">
<g filter="url(#filter0_d)">
<g filter="url(#filter1_d)">
<rect x="50" y="46" width="117" height="117" rx="25" fill="#1743AD"/>
</g>
<mask id="mask0" mask-type="alpha" maskUnits="userSpaceOnUse" x="50" y="46" width="117" height="117">
<rect x="50" y="46" width="117" height="117" rx="25" fill="#C6393D"/>
</mask>
<g mask="url(#mask0)">
<path fill-rule="evenodd" clip-rule="evenodd" d="M72.6145 105.524C74.4691 103.817 75.651 104.13 76.8667 105.251L97.1953 131.784C98.0801 132.8 98.8475 133.227 100.153 131.501L141.261 76.1885C142.398 74.6926 142.93 74.61 144.621 74.5781L146.787 74.6065C148.226 74.6294 148.153 75.9648 147.625 76.7955L95.1957 149.958C94.5504 150.659 94.1737 150.922 93.0576 151L91.3264 150.992C90.4405 150.989 90.1833 150.71 89.6777 150.176L66.7646 119.861C64.8901 116.892 64.226 115.942 66.1843 113.377L72.6145 105.524Z" fill="#D98E28"/>
<path fill-rule="evenodd" clip-rule="evenodd" d="M108.642 105.524C110.497 103.817 111.678 104.13 112.894 105.251L133.223 131.784C134.108 132.8 134.875 133.227 136.18 131.501L167 89.5001C168.137 88.0042 167 95.0001 167 98.0001V99.0001C168.439 99.023 167.527 99.6694 167 100.5L131.223 149.958C130.578 150.659 130.201 150.922 129.085 151L127.354 150.992C126.468 150.989 126.211 150.71 125.705 150.176L102.792 119.861C100.918 116.892 100.254 115.942 102.212 113.377L108.642 105.524Z" fill="white"/>
</g>
</g>
<defs>
<filter id="filter0_d" x="0" y="0" width="217" height="217" filterUnits="userSpaceOnUse" color-interpolation-filters="sRGB">
<feFlood flood-opacity="0" result="BackgroundImageFix"/>
<feColorMatrix in="SourceAlpha" type="matrix" values="0 0 0 0 0 0 0 0 0 0 0 0 0 0 0 0 0 0 127 0"/>
<feOffset dy="4"/>
<feGaussianBlur stdDeviation="25"/>
<feColorMatrix type="matrix" values="0 0 0 0 0.106059 0 0 0 0 0.257899 0 0 0 0 0.620833 0 0 0 1 0"/>
<feBlend mode="normal" in2="BackgroundImageFix" result="effect1_dropShadow"/>
<feBlend mode="normal" in="SourceGraphic" in2="effect1_dropShadow" result="shape"/>
</filter>
<filter id="filter1_d" x="42" y="40" width="137" height="137" filterUnits="userSpaceOnUse" color-interpolation-filters="sRGB">
<feFlood flood-opacity="0" result="BackgroundImageFix"/>
<feColorMatrix in="SourceAlpha" type="matrix" values="0 0 0 0 0 0 0 0 0 0 0 0 0 0 0 0 0 0 127 0"/>
<feOffset dx="2" dy="4"/>
<feGaussianBlur stdDeviation="5"/>
<feColorMatrix type="matrix" values="0 0 0 0 0 0 0 0 0 0 0 0 0 0 0 0 0 0 0.15 0"/>
<feBlend mode="normal" in2="BackgroundImageFix" result="effect1_dropShadow"/>
<feBlend mode="normal" in="SourceGraphic" in2="effect1_dropShadow" result="shape"/>
</filter>
</defs>
</svg>
